<mxfile host="app.diagrams.net" modified="2024-04-10T12:10:57.184Z" agent="Mozilla/5.0 (Windows NT 10.0; Win64; x64) AppleWebKit/537.36 (KHTML, like Gecko) Chrome/123.0.0.0 Safari/537.36" version="22.1.21" etag="OUwoH6L_fg86xX6Hf5QH" type="github">
  <diagram name="Trang-1" id="2KNJ3esoh4CSX_6Cyjbl">
    <mxGraphModel>
      <root>
        <mxCell id="0" />
        <mxCell id="1" parent="0" />
      </root>
    </mxGraphModel>
  </diagram>
</mxfile>
